<?xml version="1.0" encoding="UTF-8"?><svg id="Layer_1" xmlns="http://www.w3.org/2000/svg" viewBox="0 0 1024 1024"><defs><style>.cls-1{fill:#fff;}.cls-2{fill:#94070a;}.cls-3{fill:#c0392b;}</style></defs><rect class="cls-3" width="1024" height="1024"/><path class="cls-1" d="M112,737c0,79.53,64.47,144,144,144s144-64.47,144-144c0-59.65-36.26-110.82-87.95-132.68-5.61-2.37-11.39-4.4-17.33-6.05v-44.77c0-8.44,0-16.93,0-25.38,0-28.17,0-55.89,0-79.88h79.41s0-72.75,0-72.75h-79.41c0-26.52,0-51.2,0-72.38h80.53s0-73.12,0-73.12h-80.53c0-52.24,0-87,0-87h-77.44s0,236.24,0,455.27c-5.81,1.62-11.48,3.59-16.97,5.9-51.88,21.77-88.31,73.05-88.31,132.84Zm68.25,0c0-41.84,33.91-75.75,75.75-75.75s75.75,33.91,75.75,75.75-33.91,75.75-75.75,75.75-75.75-33.91-75.75-75.75Z"/><rect class="cls-2" x="512" width="512" height="1024"/><g><path class="cls-1" d="M595.21,936.08c0,9.7,2.83,13.08,8.83,13.08,5.56,0,11.23-2.72,16.68-8.17h2.29v5.56h-5.56l3.82-1.63c-6.21,8.39-13.62,11.88-20.71,11.88-8.72,0-14.17-5.23-14.06-19.62l.33-28.77,2.29,2.07-10.14-2.18v-3.82l15.7-1.42,1.09,1.09-.54,15.26v16.68Zm25.94,20.16l-1.53-12.75,.33-35.1,2.29,2.07-10.14-2.18v-3.82l15.48-1.42,1.09,1.09-.33,15.26v32.59l-2.62-2.62,10.14,2.18v3.81l-14.71,.87Z"/><path class="cls-1" d="M700.5,944.58v5.99l-6.76,1.53,2.73-16.13h6.65l-.44,15.8c-6.87,3.71-14.39,5.23-22.02,5.23-22.02,0-36.84-15.91-36.84-38.15s15.48-38.15,36.73-38.15c5.89,0,13.62,.98,21.04,5.23l.44,15.8h-6.65l-2.72-16.13,6.76,1.53v6.65c-6.21-5.78-12.32-7.63-17.55-7.63-14.71,0-26.59,11.44-26.59,32.7s10.68,32.7,25.83,32.7c6.21,0,13.19-1.85,19.4-6.98Z"/><path class="cls-1" d="M757.51,923.11c0,2.51-.33,4.69-.76,6.1h-40.22v-4.58h25.94c5.23,0,6.43-2.51,6.43-5.56,0-6.21-5.23-11.88-12.1-11.88s-15.04,5.89-15.04,21.47c0,13.84,6.98,21.25,17.88,21.25,6.98,0,11.33-3.16,15.26-7.74l2.51,1.96c-3.92,7.74-10.9,12.64-20.82,12.64-14.61,0-24.09-10.14-24.09-26.7s11.33-27.79,24.85-27.79c11.23,0,20.16,7.63,20.16,20.82Z"/><path class="cls-1" d="M775.5,955.38c.22-4.9,.33-16.13,.33-22.89v-5.12c0-5.99-.11-9.37-.33-13.73l-8.72-.98v-3.81l14.82-6.54,1.63,1.09,1.31,12.64v16.46c0,6.76,.11,17.98,.33,22.89h-9.37Zm17-3.81v3.81h-25.07v-3.81l11.99-2.18h2.18l10.9,2.18Zm25.18-29.1v10.03c0,6.98,.11,17.98,.33,22.89h-9.37c.22-4.9,.33-15.91,.33-22.89v-9.16c0-10.14-2.62-13.41-9.16-13.41-5.45,0-9.92,2.18-16.13,7.52h-2.29v-4.9h5.56l-4.69,1.96c5.12-6.87,13.84-12.21,21.58-12.21,9.37,0,13.84,5.78,13.84,20.16Zm-2.94,26.92l10.9,2.18v3.81h-25.07v-3.81l11.99-2.18h2.18Z"/><path class="cls-1" d="M853.32,951.34c2.4,0,4.58-.98,7.41-3.05l2.51,2.94c-2.72,3.49-7.19,5.56-12.64,5.56-7.52,0-12.21-3.92-12.21-12.32,0-2.62,.11-4.9,.11-9.16v-25.94h-9.16v-4.69l13.52-1.74-4.36,3.6,3.27-17.66h6.32l-.87,19.07v35.31c0,5.67,2.4,8.07,6.1,8.07Zm8.94-47.63v5.67h-19.4v-5.67h19.4Z"/><path class="cls-1" d="M913.6,923.11c0,2.51-.33,4.69-.76,6.1h-40.22v-4.58h25.94c5.23,0,6.43-2.51,6.43-5.56,0-6.21-5.23-11.88-12.1-11.88s-15.04,5.89-15.04,21.47c0,13.84,6.98,21.25,17.88,21.25,6.98,0,11.33-3.16,15.26-7.74l2.51,1.96c-3.92,7.74-10.9,12.64-20.82,12.64-14.61,0-24.09-10.14-24.09-26.7s11.33-27.79,24.85-27.79c11.23,0,20.16,7.63,20.16,20.82Z"/><path class="cls-1" d="M931.91,932.49v-5.12c0-5.99-.11-9.37-.33-13.73l-8.72-.98v-3.81l14.82-6.54,1.63,1.09,1.31,13.62v15.48c0,6.76,.11,17.98,.33,22.89h-9.37c.22-4.9,.33-16.13,.33-22.89Zm-8.17,19.07l11.99-2.18h2.18l11.99,2.18v3.81h-26.16v-3.81Zm12.53-33.79h6.21l-2.72,.76c3.49-10.14,10.14-16.24,16.57-16.24,3.16,0,6.43,1.53,7.74,3.71,0,5.12-1.96,7.96-6.32,7.96-2.51,0-4.58-.98-6.54-2.62l-2.94-2.51,5.34-1.09c-6.76,3.49-10.68,8.94-13.19,17.33h-4.14v-7.3Z"/></g></svg>